<svg width="75" height="11" viewBox="0 0 75 11" fill="none" xmlns="http://www.w3.org/2000/svg">
<g clip-path="url(#clip0_325_6)">
<path d="M3 2.43V10H5.76V2.43H8.76V0.25H0V2.43H3Z" fill="white"/>
<path d="M16.47 6.94C17.0461 6.67039 17.5347 6.24416 17.88 5.71C18.2243 5.15565 18.3982 4.51234 18.38 3.86C18.4033 3.19191 18.2251 2.53227 17.8683 1.96689C17.5116 1.40152 16.993 0.95659 16.38 0.69C15.6525 0.384323 14.869 0.234437 14.08 0.25H9.59V2.42H13.88C14.3384 2.38945 14.7925 2.52428 15.16 2.8C15.3044 2.93485 15.4176 3.09954 15.4919 3.28259C15.5661 3.46565 15.5996 3.66269 15.59 3.86C15.6003 4.05739 15.5671 4.25463 15.4928 4.4378C15.4185 4.62096 15.3049 4.78557 15.16 4.92C14.7898 5.18863 14.3359 5.31629 13.88 5.28H9.59V10H12.35V7.41H13.85L15.62 10H18.62L16.47 6.94Z" fill="white"/>
<path d="M26.33 0.25H23.61L19.3 10H22.12L22.88 8.11L23.69 6.11L24.94 2.95L26.19 6.07L27 8.07L27.77 9.96H30.64L26.33 0.25Z" fill="white"/>
<path d="M32.82 9.53996C33.6728 9.97857 34.6212 10.1985 35.58 10.18C36.4075 10.1952 37.2289 10.0351 37.99 9.70996C38.6917 9.40991 39.3071 8.93892 39.78 8.33996L38.02 6.74996C37.5966 7.30425 36.9894 7.68934 36.3075 7.83598C35.6256 7.98262 34.9138 7.88121 34.3 7.54996C33.8711 7.32828 33.5217 6.97885 33.3 6.54996C33.0761 6.09761 32.9596 5.59969 32.9596 5.09496C32.9596 4.59023 33.0761 4.09231 33.3 3.63996C33.5258 3.21412 33.8742 2.86579 34.3 2.63996C34.7357 2.4039 35.2245 2.2834 35.72 2.28996C36.1638 2.29798 36.6004 2.40439 36.9981 2.60153C37.3958 2.79867 37.7449 3.08161 38.02 3.42996L39.78 1.83996C39.2981 1.25269 38.6849 0.786846 37.99 0.47996C37.2284 0.155406 36.4078 -0.00802068 35.58 -4.04888e-05C34.6195 -0.0119749 33.6712 0.214813 32.82 0.659959C32.0395 1.07536 31.3889 1.69826 30.94 2.45996C30.4698 3.25171 30.2308 4.15932 30.25 5.07996C30.2308 6.00059 30.4698 6.9082 30.94 7.69996C31.3814 8.47772 32.0329 9.1154 32.82 9.53996Z" fill="white"/>
<path d="M43.22 2.43V10H45.94V2.43H48.94V0.25H40.22V2.43H43.22Z" fill="white"/>
<path d="M49.81 0.25V10H52.57V0.25H49.81Z" fill="white"/>
<path d="M60.21 0.25H57.49L53.18 10H56L56.77 8.11L57.57 6.11L58.83 2.99L60.08 6.11L60.89 8.11L61.66 10H64.53L60.21 0.25Z" fill="white"/>
<path d="M65.13 10H67.84V7.09L65.15 3.65L65.13 10ZM71.71 0.25V3.05L74.41 6.31V0.25H71.71ZM71.71 5.45L67.4 0.25H65.13V1.54L67.84 4.8L72.14 10H74.42V8.87L71.71 5.43V5.45Z" fill="white"/>
</g>
<defs>
<clipPath id="clip0_325_6">
<rect width="74.42" height="10.15" fill="white"/>
</clipPath>
</defs>
</svg>
